<svg width="565" height="195" viewBox="0 0 565 195" fill="none" xmlns="http://www.w3.org/2000/svg">
<path d="M17.696 0.975999C21.0587 0.975999 23.988 1.63467 26.484 2.952C28.98 4.26933 30.9213 6.21066 32.308 8.776C33.6947 11.3413 34.388 14.444 34.388 18.084V38H25.964V29.264H9.324V38H1.004V18.084C1.004 14.444 1.69733 11.3413 3.084 8.776C4.47067 6.21066 6.412 4.26933 8.908 2.952C11.404 1.63467 14.3333 0.975999 17.696 0.975999ZM25.964 22.504V17.304C25.964 14.288 25.2187 12.0173 23.728 10.492C22.2373 8.932 20.2093 8.152 17.644 8.152C15.044 8.152 12.9987 8.932 11.508 10.492C10.052 12.0173 9.324 14.288 9.324 17.304V22.504H25.964ZM56.6387 9.608C59.6201 9.608 62.2201 10.1973 64.4387 11.376C66.6574 12.5547 68.3734 14.236 69.5867 16.42C70.8001 18.604 71.4067 21.152 71.4067 24.064C71.4067 26.9067 70.8347 29.42 69.6907 31.604C68.5467 33.7533 66.9347 35.4347 64.8547 36.648C62.7747 37.8267 60.3827 38.416 57.6787 38.416C54.1081 38.416 51.3174 37.2893 49.3067 35.036V48.088H41.1947V24.116C41.1947 21.2387 41.8361 18.708 43.1187 16.524C44.4014 14.34 46.2041 12.6413 48.5267 11.428C50.8494 10.2147 53.5534 9.608 56.6387 9.608ZM56.2747 31.76C58.3894 31.76 60.1054 31.0493 61.4227 29.628C62.7401 28.2067 63.3987 26.352 63.3987 24.064C63.3987 21.7413 62.7401 19.8693 61.4227 18.448C60.1054 16.992 58.3894 16.264 56.2747 16.264C54.1601 16.264 52.4441 16.9747 51.1267 18.396C49.8441 19.8173 49.2027 21.6893 49.2027 24.012C49.2027 26.3347 49.8441 28.2067 51.1267 29.628C52.4094 31.0493 54.1254 31.76 56.2747 31.76ZM91.0587 31.916C92.5147 31.916 93.7973 31.708 94.9067 31.292C96.0507 30.8413 97.108 30.148 98.0787 29.212L102.395 33.892C99.76 36.908 95.912 38.416 90.8507 38.416C87.696 38.416 84.9053 37.8093 82.4787 36.596C80.052 35.348 78.18 33.632 76.8627 31.448C75.5453 29.264 74.8867 26.7853 74.8867 24.012C74.8867 21.2733 75.528 18.812 76.8107 16.628C78.128 14.4093 79.9133 12.6933 82.1667 11.48C84.4547 10.232 87.02 9.608 89.8627 9.608C92.532 9.608 94.9587 10.18 97.1427 11.324C99.3267 12.4333 101.06 14.0627 102.343 16.212C103.66 18.3267 104.319 20.84 104.319 23.752L83.6227 27.756C84.212 29.1427 85.1307 30.1827 86.3787 30.876C87.6613 31.5693 89.2213 31.916 91.0587 31.916ZM89.8627 15.744C87.8173 15.744 86.1533 16.4027 84.8707 17.72C83.588 19.0373 82.912 20.8573 82.8427 23.18L96.4667 20.528C96.0853 19.072 95.3053 17.9107 94.1267 17.044C92.948 16.1773 91.5267 15.744 89.8627 15.744ZM109.927 10.024H117.987V20.944H130.155V10.024H138.267V38H130.155V27.548H117.987V38H109.927V10.024ZM174.581 10.024V33.32C174.581 38.4507 173.246 42.264 170.577 44.76C167.907 47.256 164.007 48.504 158.877 48.504C156.173 48.504 153.607 48.1747 151.181 47.516C148.754 46.8573 146.743 45.904 145.149 44.656L148.373 38.832C149.551 39.8027 151.042 40.5653 152.845 41.12C154.647 41.7093 156.45 42.004 158.253 42.004C161.061 42.004 163.123 41.3627 164.441 40.08C165.793 38.832 166.469 36.9253 166.469 34.36V33.164C164.354 35.4867 161.407 36.648 157.629 36.648C155.063 36.648 152.706 36.0933 150.557 34.984C148.442 33.84 146.761 32.2453 145.513 30.2C144.265 28.1547 143.641 25.7973 143.641 23.128C143.641 20.4587 144.265 18.1013 145.513 16.056C146.761 14.0107 148.442 12.4333 150.557 11.324C152.706 10.18 155.063 9.608 157.629 9.608C161.685 9.608 164.77 10.9427 166.885 13.612V10.024H174.581ZM159.241 29.992C161.39 29.992 163.141 29.368 164.493 28.12C165.879 26.8373 166.573 25.1733 166.573 23.128C166.573 21.0827 165.879 19.436 164.493 18.188C163.141 16.9053 161.39 16.264 159.241 16.264C157.091 16.264 155.323 16.9053 153.937 18.188C152.55 19.436 151.857 21.0827 151.857 23.128C151.857 25.1733 152.55 26.8373 153.937 28.12C155.323 29.368 157.091 29.992 159.241 29.992ZM210.628 10.024V38H202.88V34.776C200.87 37.2027 197.958 38.416 194.144 38.416C191.51 38.416 189.118 37.8267 186.968 36.648C184.854 35.4693 183.19 33.788 181.976 31.604C180.763 29.42 180.156 26.8893 180.156 24.012C180.156 21.1347 180.763 18.604 181.976 16.42C183.19 14.236 184.854 12.5547 186.968 11.376C189.118 10.1973 191.51 9.608 194.144 9.608C197.715 9.608 200.506 10.7347 202.516 12.988V10.024H210.628ZM195.548 31.76C197.594 31.76 199.292 31.0667 200.644 29.68C201.996 28.2587 202.672 26.3693 202.672 24.012C202.672 21.6547 201.996 19.7827 200.644 18.396C199.292 16.9747 197.594 16.264 195.548 16.264C193.468 16.264 191.752 16.9747 190.4 18.396C189.048 19.7827 188.372 21.6547 188.372 24.012C188.372 26.3693 189.048 28.2587 190.4 29.68C191.752 31.0667 193.468 31.76 195.548 31.76ZM245.345 27.392H241.133V38H233.021V10.024H241.133V20.892H245.501L253.093 10.024H261.725L251.949 23.44L262.401 38H252.833L245.345 27.392ZM278.625 38.416C275.678 38.416 273.026 37.8093 270.669 36.596C268.346 35.348 266.526 33.632 265.209 31.448C263.892 29.264 263.233 26.7853 263.233 24.012C263.233 21.2387 263.892 18.76 265.209 16.576C266.526 14.392 268.346 12.6933 270.669 11.48C273.026 10.232 275.678 9.608 278.625 9.608C281.572 9.608 284.206 10.232 286.529 11.48C288.852 12.6933 290.672 14.392 291.989 16.576C293.306 18.76 293.965 21.2387 293.965 24.012C293.965 26.7853 293.306 29.264 291.989 31.448C290.672 33.632 288.852 35.348 286.529 36.596C284.206 37.8093 281.572 38.416 278.625 38.416ZM278.625 31.76C280.705 31.76 282.404 31.0667 283.721 29.68C285.073 28.2587 285.749 26.3693 285.749 24.012C285.749 21.6547 285.073 19.7827 283.721 18.396C282.404 16.9747 280.705 16.264 278.625 16.264C276.545 16.264 274.829 16.9747 273.477 18.396C272.125 19.7827 271.449 21.6547 271.449 24.012C271.449 26.3693 272.125 28.2587 273.477 29.68C274.829 31.0667 276.545 31.76 278.625 31.76ZM312.857 38.416C309.875 38.416 307.189 37.8093 304.797 36.596C302.439 35.348 300.585 33.632 299.233 31.448C297.915 29.264 297.257 26.7853 297.257 24.012C297.257 21.2387 297.915 18.76 299.233 16.576C300.585 14.392 302.439 12.6933 304.797 11.48C307.189 10.232 309.875 9.608 312.857 9.608C315.803 9.608 318.369 10.232 320.553 11.48C322.771 12.6933 324.383 14.444 325.389 16.732L319.097 20.112C317.641 17.5467 315.543 16.264 312.805 16.264C310.69 16.264 308.939 16.9573 307.553 18.344C306.166 19.7307 305.473 21.62 305.473 24.012C305.473 26.404 306.166 28.2933 307.553 29.68C308.939 31.0667 310.69 31.76 312.805 31.76C315.578 31.76 317.675 30.4773 319.097 27.912L325.389 31.344C324.383 33.5627 322.771 35.296 320.553 36.544C318.369 37.792 315.803 38.416 312.857 38.416ZM366.094 9.608C369.595 9.608 372.369 10.648 374.414 12.728C376.494 14.7733 377.534 17.8587 377.534 21.984V38H369.422V23.232C369.422 21.0133 368.954 19.3667 368.018 18.292C367.117 17.1827 365.817 16.628 364.118 16.628C362.211 16.628 360.703 17.252 359.594 18.5C358.485 19.7133 357.93 21.5333 357.93 23.96V38H349.818V23.232C349.818 18.8293 348.05 16.628 344.514 16.628C342.642 16.628 341.151 17.252 340.042 18.5C338.933 19.7133 338.378 21.5333 338.378 23.96V38H330.266V10.024H338.014V13.248C339.054 12.0693 340.319 11.168 341.81 10.544C343.335 9.92 344.999 9.608 346.802 9.608C348.778 9.608 350.563 10.0067 352.158 10.804C353.753 11.5667 355.035 12.6933 356.006 14.184C357.15 12.728 358.589 11.6013 360.322 10.804C362.09 10.0067 364.014 9.608 366.094 9.608ZM411.071 9.608C413.914 9.608 416.462 10.232 418.715 11.48C420.968 12.6933 422.736 14.392 424.019 16.576C425.302 18.76 425.943 21.2387 425.943 24.012C425.943 26.7853 425.302 29.264 424.019 31.448C422.736 33.632 420.968 35.348 418.715 36.596C416.462 37.8093 413.914 38.416 411.071 38.416C408.61 38.416 406.356 37.9653 404.311 37.064C402.266 36.128 400.567 34.828 399.215 33.164C397.863 31.4653 396.962 29.524 396.511 27.34H392.663V38H384.603V10.024H392.663V20.32H396.563C397.36 17.0613 399.059 14.4613 401.659 12.52C404.259 10.5787 407.396 9.608 411.071 9.608ZM411.071 31.76C413.047 31.76 414.676 31.0667 415.959 29.68C417.276 28.2587 417.935 26.3693 417.935 24.012C417.935 21.62 417.276 19.7307 415.959 18.344C414.676 16.9573 413.047 16.264 411.071 16.264C409.06 16.264 407.396 16.9573 406.079 18.344C404.796 19.7307 404.155 21.62 404.155 24.012C404.155 26.3693 404.796 28.2587 406.079 29.68C407.396 31.0667 409.06 31.76 411.071 31.76ZM458.876 38V21.256L450.504 35.296H447.072L438.908 21.204V38H431.576V10.024H440.052L448.996 26.196L458.512 10.024H466.104L466.208 38H458.876ZM487.082 38.416C484.135 38.416 481.483 37.8093 479.126 36.596C476.803 35.348 474.983 33.632 473.666 31.448C472.349 29.264 471.69 26.7853 471.69 24.012C471.69 21.2387 472.349 18.76 473.666 16.576C474.983 14.392 476.803 12.6933 479.126 11.48C481.483 10.232 484.135 9.608 487.082 9.608C490.029 9.608 492.663 10.232 494.986 11.48C497.309 12.6933 499.129 14.392 500.446 16.576C501.763 18.76 502.422 21.2387 502.422 24.012C502.422 26.7853 501.763 29.264 500.446 31.448C499.129 33.632 497.309 35.348 494.986 36.596C492.663 37.8093 490.029 38.416 487.082 38.416ZM487.082 31.76C489.162 31.76 490.861 31.0667 492.178 29.68C493.53 28.2587 494.206 26.3693 494.206 24.012C494.206 21.6547 493.53 19.7827 492.178 18.396C490.861 16.9747 489.162 16.264 487.082 16.264C485.002 16.264 483.286 16.9747 481.934 18.396C480.582 19.7827 479.906 21.6547 479.906 24.012C479.906 26.3693 480.582 28.2587 481.934 29.68C483.286 31.0667 485.002 31.76 487.082 31.76ZM529.374 23.388C532.667 24.4973 534.314 26.716 534.314 30.044C534.314 32.5747 533.36 34.5333 531.454 35.92C529.547 37.3067 526.704 38 522.926 38H508.002V10.024H522.302C525.803 10.024 528.542 10.6653 530.518 11.948C532.494 13.196 533.482 14.964 533.482 17.252C533.482 18.6387 533.118 19.8693 532.39 20.944C531.696 21.984 530.691 22.7987 529.374 23.388ZM515.438 21.516H521.574C524.416 21.516 525.838 20.5107 525.838 18.5C525.838 16.524 524.416 15.536 521.574 15.536H515.438V21.516ZM522.25 32.488C525.231 32.488 526.722 31.4653 526.722 29.42C526.722 28.3453 526.375 27.5653 525.682 27.08C524.988 26.56 523.896 26.3 522.406 26.3H515.438V32.488H522.25Z" fill="#FFCA33"/>
<path d="M22.272 96.388C25.5653 97.4973 27.212 99.716 27.212 103.044C27.212 105.575 26.2587 107.533 24.352 108.92C22.4453 110.307 19.6027 111 15.824 111H0.9V83.024H15.2C18.7013 83.024 21.44 83.6653 23.416 84.948C25.392 86.196 26.38 87.964 26.38 90.252C26.38 91.6387 26.016 92.8693 25.288 93.944C24.5947 94.984 23.5893 95.7987 22.272 96.388ZM8.336 94.516H14.472C17.3147 94.516 18.736 93.5107 18.736 91.5C18.736 89.524 17.3147 88.536 14.472 88.536H8.336V94.516ZM15.148 105.488C18.1293 105.488 19.62 104.465 19.62 102.42C19.62 101.345 19.2733 100.565 18.58 100.08C17.8867 99.56 16.7947 99.3 15.304 99.3H8.336V105.488H15.148ZM45.9357 111.78C41.4983 111.78 38.1703 110.792 35.9517 108.816C33.733 106.84 32.6237 103.928 32.6237 100.08V83.024H40.6837V92.488C41.481 91.9333 42.521 91.4653 43.8037 91.084C45.121 90.7027 46.6117 90.512 48.2757 90.512C51.7077 90.512 54.3943 91.3787 56.3357 93.112C58.277 94.8453 59.2477 97.376 59.2477 100.704C59.2477 104.24 58.0517 106.979 55.6597 108.92C53.2677 110.827 50.0263 111.78 45.9357 111.78ZM62.2117 83.024H70.3237V111H62.2117V83.024ZM45.9357 106.06C47.5997 106.06 48.865 105.575 49.7317 104.604C50.5983 103.633 51.0317 102.368 51.0317 100.808C51.0317 99.352 50.581 98.1907 49.6797 97.324C48.813 96.4227 47.5477 95.972 45.8837 95.972C44.705 95.972 43.665 96.2147 42.7637 96.7C41.897 97.1507 41.2037 97.7747 40.6837 98.572V100.86C40.6837 102.489 41.1343 103.772 42.0357 104.708C42.937 105.609 44.237 106.06 45.9357 106.06ZM91.3995 111.416C88.4182 111.416 85.7315 110.809 83.3395 109.596C80.9822 108.348 79.1275 106.632 77.7755 104.448C76.4582 102.264 75.7995 99.7853 75.7995 97.012C75.7995 94.2387 76.4582 91.76 77.7755 89.576C79.1275 87.392 80.9822 85.6933 83.3395 84.48C85.7315 83.232 88.4182 82.608 91.3995 82.608C94.3462 82.608 96.9115 83.232 99.0955 84.48C101.314 85.6933 102.926 87.444 103.932 89.732L97.6395 93.112C96.1835 90.5467 94.0862 89.264 91.3475 89.264C89.2328 89.264 87.4822 89.9573 86.0955 91.344C84.7088 92.7307 84.0155 94.62 84.0155 97.012C84.0155 99.404 84.7088 101.293 86.0955 102.68C87.4822 104.067 89.2328 104.76 91.3475 104.76C94.1208 104.76 96.2182 103.477 97.6395 100.912L103.932 104.344C102.926 106.563 101.314 108.296 99.0955 109.544C96.9115 110.792 94.3462 111.416 91.3995 111.416ZM151.553 83.024V111H108.861V83.024H116.921V104.344H126.229V83.024H134.289V104.344H143.493V83.024H151.553ZM173.274 104.916C174.73 104.916 176.012 104.708 177.122 104.292C178.266 103.841 179.323 103.148 180.294 102.212L184.61 106.892C181.975 109.908 178.127 111.416 173.066 111.416C169.911 111.416 167.12 110.809 164.694 109.596C162.267 108.348 160.395 106.632 159.078 104.448C157.76 102.264 157.102 99.7853 157.102 97.012C157.102 94.2733 157.743 91.812 159.026 89.628C160.343 87.4093 162.128 85.6933 164.382 84.48C166.67 83.232 169.235 82.608 172.078 82.608C174.747 82.608 177.174 83.18 179.358 84.324C181.542 85.4333 183.275 87.0627 184.558 89.212C185.875 91.3267 186.534 93.84 186.534 96.752L165.838 100.756C166.427 102.143 167.346 103.183 168.594 103.876C169.876 104.569 171.436 104.916 173.274 104.916ZM172.078 88.744C170.032 88.744 168.368 89.4027 167.086 90.72C165.803 92.0373 165.127 93.8573 165.058 96.18L178.682 93.528C178.3 92.072 177.52 90.9107 176.342 90.044C175.163 89.1773 173.742 88.744 172.078 88.744ZM214.554 89.68H200.202V111H192.142V83.024H214.554V89.68ZM230.789 111.416C227.842 111.416 225.19 110.809 222.833 109.596C220.51 108.348 218.69 106.632 217.373 104.448C216.056 102.264 215.397 99.7853 215.397 97.012C215.397 94.2387 216.056 91.76 217.373 89.576C218.69 87.392 220.51 85.6933 222.833 84.48C225.19 83.232 227.842 82.608 230.789 82.608C233.736 82.608 236.37 83.232 238.693 84.48C241.016 85.6933 242.836 87.392 244.153 89.576C245.47 91.76 246.129 94.2387 246.129 97.012C246.129 99.7853 245.47 102.264 244.153 104.448C242.836 106.632 241.016 108.348 238.693 109.596C236.37 110.809 233.736 111.416 230.789 111.416ZM230.789 104.76C232.869 104.76 234.568 104.067 235.885 102.68C237.237 101.259 237.913 99.3693 237.913 97.012C237.913 94.6547 237.237 92.7827 235.885 91.396C234.568 89.9747 232.869 89.264 230.789 89.264C228.709 89.264 226.993 89.9747 225.641 91.396C224.289 92.7827 223.613 94.6547 223.613 97.012C223.613 99.3693 224.289 101.259 225.641 102.68C226.993 104.067 228.709 104.76 230.789 104.76ZM278.759 100.392H274.547V111H266.435V83.024H274.547V93.892H278.915L286.507 83.024H295.139L285.363 96.44L295.815 111H286.247L278.759 100.392ZM327.171 83.024V111H319.423V107.776C317.412 110.203 314.5 111.416 310.687 111.416C308.052 111.416 305.66 110.827 303.511 109.648C301.396 108.469 299.732 106.788 298.519 104.604C297.306 102.42 296.699 99.8893 296.699 97.012C296.699 94.1347 297.306 91.604 298.519 89.42C299.732 87.236 301.396 85.5547 303.511 84.376C305.66 83.1973 308.052 82.608 310.687 82.608C314.258 82.608 317.048 83.7347 319.059 85.988V83.024H327.171ZM312.091 104.76C314.136 104.76 315.835 104.067 317.187 102.68C318.539 101.259 319.215 99.3693 319.215 97.012C319.215 94.6547 318.539 92.7827 317.187 91.396C315.835 89.9747 314.136 89.264 312.091 89.264C310.011 89.264 308.295 89.9747 306.943 91.396C305.591 92.7827 304.915 94.6547 304.915 97.012C304.915 99.3693 305.591 101.259 306.943 102.68C308.295 104.067 310.011 104.76 312.091 104.76ZM360.006 83.024V111H351.894V100.6C349.536 101.779 346.936 102.368 344.094 102.368C340.315 102.368 337.455 101.519 335.514 99.82C333.607 98.0867 332.653 95.4173 332.653 91.812V83.024H340.766V91.292C340.766 92.9907 341.199 94.2213 342.066 94.984C342.967 95.7467 344.25 96.128 345.914 96.128C348.028 96.128 350.022 95.6773 351.894 94.776V83.024H360.006ZM381.731 104.916C383.187 104.916 384.469 104.708 385.579 104.292C386.723 103.841 387.78 103.148 388.751 102.212L393.067 106.892C390.432 109.908 386.584 111.416 381.523 111.416C378.368 111.416 375.577 110.809 373.151 109.596C370.724 108.348 368.852 106.632 367.535 104.448C366.217 102.264 365.559 99.7853 365.559 97.012C365.559 94.2733 366.2 91.812 367.483 89.628C368.8 87.4093 370.585 85.6933 372.839 84.48C375.127 83.232 377.692 82.608 380.535 82.608C383.204 82.608 385.631 83.18 387.815 84.324C389.999 85.4333 391.732 87.0627 393.015 89.212C394.332 91.3267 394.991 93.84 394.991 96.752L374.295 100.756C374.884 102.143 375.803 103.183 377.051 103.876C378.333 104.569 379.893 104.916 381.731 104.916ZM380.535 88.744C378.489 88.744 376.825 89.4027 375.543 90.72C374.26 92.0373 373.584 93.8573 373.515 96.18L387.139 93.528C386.757 92.072 385.977 90.9107 384.799 90.044C383.62 89.1773 382.199 88.744 380.535 88.744ZM413.911 111.416C410.93 111.416 408.243 110.809 405.851 109.596C403.494 108.348 401.639 106.632 400.287 104.448C398.97 102.264 398.311 99.7853 398.311 97.012C398.311 94.2387 398.97 91.76 400.287 89.576C401.639 87.392 403.494 85.6933 405.851 84.48C408.243 83.232 410.93 82.608 413.911 82.608C416.858 82.608 419.423 83.232 421.607 84.48C423.826 85.6933 425.438 87.444 426.443 89.732L420.151 93.112C418.695 90.5467 416.598 89.264 413.859 89.264C411.745 89.264 409.994 89.9573 408.607 91.344C407.221 92.7307 406.527 94.62 406.527 97.012C406.527 99.404 407.221 101.293 408.607 102.68C409.994 104.067 411.745 104.76 413.859 104.76C416.633 104.76 418.73 103.477 420.151 100.912L426.443 104.344C425.438 106.563 423.826 108.296 421.607 109.544C419.423 110.792 416.858 111.416 413.911 111.416ZM467.149 82.608C470.65 82.608 473.423 83.648 475.469 85.728C477.549 87.7733 478.589 90.8587 478.589 94.984V111H470.477V96.232C470.477 94.0133 470.009 92.3667 469.073 91.292C468.171 90.1827 466.871 89.628 465.173 89.628C463.266 89.628 461.758 90.252 460.649 91.5C459.539 92.7133 458.985 94.5333 458.985 96.96V111H450.873V96.232C450.873 91.8293 449.105 89.628 445.569 89.628C443.697 89.628 442.206 90.252 441.097 91.5C439.987 92.7133 439.433 94.5333 439.433 96.96V111H431.321V83.024H439.069V86.248C440.109 85.0693 441.374 84.168 442.865 83.544C444.39 82.92 446.054 82.608 447.857 82.608C449.833 82.608 451.618 83.0067 453.213 83.804C454.807 84.5667 456.09 85.6933 457.061 87.184C458.205 85.728 459.643 84.6013 461.377 83.804C463.145 83.0067 465.069 82.608 467.149 82.608ZM507.03 96.388C510.323 97.4973 511.97 99.716 511.97 103.044C511.97 105.575 511.016 107.533 509.11 108.92C507.203 110.307 504.36 111 500.582 111H485.658V83.024H499.958C503.459 83.024 506.198 83.6653 508.174 84.948C510.15 86.196 511.138 87.964 511.138 90.252C511.138 91.6387 510.774 92.8693 510.046 93.944C509.352 94.984 508.347 95.7987 507.03 96.388ZM493.094 94.516H499.23C502.072 94.516 503.494 93.5107 503.494 91.5C503.494 89.524 502.072 88.536 499.23 88.536H493.094V94.516ZM499.906 105.488C502.887 105.488 504.378 104.465 504.378 102.42C504.378 101.345 504.031 100.565 503.338 100.08C502.644 99.56 501.552 99.3 500.062 99.3H493.094V105.488H499.906ZM546.241 83.024V111H538.493V107.776C536.483 110.203 533.571 111.416 529.757 111.416C527.123 111.416 524.731 110.827 522.581 109.648C520.467 108.469 518.803 106.788 517.589 104.604C516.376 102.42 515.769 99.8893 515.769 97.012C515.769 94.1347 516.376 91.604 517.589 89.42C518.803 87.236 520.467 85.5547 522.581 84.376C524.731 83.1973 527.123 82.608 529.757 82.608C533.328 82.608 536.119 83.7347 538.129 85.988V83.024H546.241ZM531.161 104.76C533.207 104.76 534.905 104.067 536.257 102.68C537.609 101.259 538.285 99.3693 538.285 97.012C538.285 94.6547 537.609 92.7827 536.257 91.396C534.905 89.9747 533.207 89.264 531.161 89.264C529.081 89.264 527.365 89.9747 526.013 91.396C524.661 92.7827 523.985 94.6547 523.985 97.012C523.985 99.3693 524.661 101.259 526.013 102.68C527.365 104.067 529.081 104.76 531.161 104.76ZM28.72 156.024V184H20.608V162.68H8.96V184H0.9V156.024H28.72ZM49.6017 184.416C46.655 184.416 44.003 183.809 41.6457 182.596C39.323 181.348 37.503 179.632 36.1857 177.448C34.8683 175.264 34.2097 172.785 34.2097 170.012C34.2097 167.239 34.8683 164.76 36.1857 162.576C37.503 160.392 39.323 158.693 41.6457 157.48C44.003 156.232 46.655 155.608 49.6017 155.608C52.5483 155.608 55.183 156.232 57.5057 157.48C59.8283 158.693 61.6483 160.392 62.9657 162.576C64.283 164.76 64.9417 167.239 64.9417 170.012C64.9417 172.785 64.283 175.264 62.9657 177.448C61.6483 179.632 59.8283 181.348 57.5057 182.596C55.183 183.809 52.5483 184.416 49.6017 184.416ZM49.6017 177.76C51.6817 177.76 53.3803 177.067 54.6977 175.68C56.0497 174.259 56.7257 172.369 56.7257 170.012C56.7257 167.655 56.0497 165.783 54.6977 164.396C53.3803 162.975 51.6817 162.264 49.6017 162.264C47.5217 162.264 45.8057 162.975 44.4537 164.396C43.1017 165.783 42.4257 167.655 42.4257 170.012C42.4257 172.369 43.1017 174.259 44.4537 175.68C45.8057 177.067 47.5217 177.76 49.6017 177.76ZM113.796 156.024V179.32C113.796 184.451 112.461 188.264 109.792 190.76C107.122 193.256 103.222 194.504 98.0917 194.504C95.3877 194.504 92.8223 194.175 90.3957 193.516C87.969 192.857 85.9583 191.904 84.3637 190.656L87.5877 184.832C88.7663 185.803 90.257 186.565 92.0597 187.12C93.8623 187.709 95.665 188.004 97.4677 188.004C100.276 188.004 102.338 187.363 103.656 186.08C105.008 184.832 105.684 182.925 105.684 180.36V179.164C103.569 181.487 100.622 182.648 96.8437 182.648C94.2783 182.648 91.921 182.093 89.7717 180.984C87.657 179.84 85.9757 178.245 84.7277 176.2C83.4797 174.155 82.8557 171.797 82.8557 169.128C82.8557 166.459 83.4797 164.101 84.7277 162.056C85.9757 160.011 87.657 158.433 89.7717 157.324C91.921 156.18 94.2783 155.608 96.8437 155.608C100.9 155.608 103.985 156.943 106.1 159.612V156.024H113.796ZM98.4557 175.992C100.605 175.992 102.356 175.368 103.708 174.12C105.094 172.837 105.788 171.173 105.788 169.128C105.788 167.083 105.094 165.436 103.708 164.188C102.356 162.905 100.605 162.264 98.4557 162.264C96.3063 162.264 94.5383 162.905 93.1517 164.188C91.765 165.436 91.0717 167.083 91.0717 169.128C91.0717 171.173 91.765 172.837 93.1517 174.12C94.5383 175.368 96.3063 175.992 98.4557 175.992ZM134.711 184.416C131.764 184.416 129.112 183.809 126.755 182.596C124.432 181.348 122.612 179.632 121.295 177.448C119.978 175.264 119.319 172.785 119.319 170.012C119.319 167.239 119.978 164.76 121.295 162.576C122.612 160.392 124.432 158.693 126.755 157.48C129.112 156.232 131.764 155.608 134.711 155.608C137.658 155.608 140.292 156.232 142.615 157.48C144.938 158.693 146.758 160.392 148.075 162.576C149.392 164.76 150.051 167.239 150.051 170.012C150.051 172.785 149.392 175.264 148.075 177.448C146.758 179.632 144.938 181.348 142.615 182.596C140.292 183.809 137.658 184.416 134.711 184.416ZM134.711 177.76C136.791 177.76 138.49 177.067 139.807 175.68C141.159 174.259 141.835 172.369 141.835 170.012C141.835 167.655 141.159 165.783 139.807 164.396C138.49 162.975 136.791 162.264 134.711 162.264C132.631 162.264 130.915 162.975 129.563 164.396C128.211 165.783 127.535 167.655 127.535 170.012C127.535 172.369 128.211 174.259 129.563 175.68C130.915 177.067 132.631 177.76 134.711 177.76ZM168.942 184.416C165.961 184.416 163.274 183.809 160.882 182.596C158.525 181.348 156.67 179.632 155.318 177.448C154.001 175.264 153.342 172.785 153.342 170.012C153.342 167.239 154.001 164.76 155.318 162.576C156.67 160.392 158.525 158.693 160.882 157.48C163.274 156.232 165.961 155.608 168.942 155.608C171.889 155.608 174.454 156.232 176.638 157.48C178.857 158.693 180.469 160.444 181.474 162.732L175.182 166.112C173.726 163.547 171.629 162.264 168.89 162.264C166.776 162.264 165.025 162.957 163.638 164.344C162.252 165.731 161.558 167.62 161.558 170.012C161.558 172.404 162.252 174.293 163.638 175.68C165.025 177.067 166.776 177.76 168.89 177.76C171.664 177.76 173.761 176.477 175.182 173.912L181.474 177.344C180.469 179.563 178.857 181.296 176.638 182.544C174.454 183.792 171.889 184.416 168.942 184.416ZM222.18 155.608C225.681 155.608 228.455 156.648 230.5 158.728C232.58 160.773 233.62 163.859 233.62 167.984V184H225.508V169.232C225.508 167.013 225.04 165.367 224.104 164.292C223.203 163.183 221.903 162.628 220.204 162.628C218.297 162.628 216.789 163.252 215.68 164.5C214.571 165.713 214.016 167.533 214.016 169.96V184H205.904V169.232C205.904 164.829 204.136 162.628 200.6 162.628C198.728 162.628 197.237 163.252 196.128 164.5C195.019 165.713 194.464 167.533 194.464 169.96V184H186.352V156.024H194.1V159.248C195.14 158.069 196.405 157.168 197.896 156.544C199.421 155.92 201.085 155.608 202.888 155.608C204.864 155.608 206.649 156.007 208.244 156.804C209.839 157.567 211.121 158.693 212.092 160.184C213.236 158.728 214.675 157.601 216.408 156.804C218.176 156.007 220.1 155.608 222.18 155.608ZM268.717 156.024V179.32C268.717 184.451 267.417 188.264 264.817 190.76C262.217 193.256 258.438 194.504 253.481 194.504C250.846 194.504 248.35 194.175 245.993 193.516C243.67 192.857 241.712 191.904 240.117 190.656L243.341 184.832C244.52 185.803 245.958 186.565 247.657 187.12C249.356 187.675 251.072 187.952 252.805 187.952C255.509 187.952 257.485 187.328 258.733 186.08C259.981 184.832 260.605 182.925 260.605 180.36V179.424C259.565 180.464 258.334 181.261 256.913 181.816C255.492 182.371 253.966 182.648 252.337 182.648C248.662 182.648 245.75 181.608 243.601 179.528C241.452 177.413 240.377 174.259 240.377 170.064V156.024H248.489V168.868C248.489 173.409 250.378 175.68 254.157 175.68C256.098 175.68 257.658 175.056 258.837 173.808C260.016 172.525 260.605 170.636 260.605 168.14V156.024H268.717ZM304.208 156.024V184H296.096V162.68H284.448V184H276.388V156.024H304.208ZM311.986 156.024H320.046V166.944H332.214V156.024H340.326V184H332.214V173.548H320.046V184H311.986V156.024ZM361.195 184.416C358.249 184.416 355.597 183.809 353.239 182.596C350.917 181.348 349.097 179.632 347.779 177.448C346.462 175.264 345.803 172.785 345.803 170.012C345.803 167.239 346.462 164.76 347.779 162.576C349.097 160.392 350.917 158.693 353.239 157.48C355.597 156.232 358.249 155.608 361.195 155.608C364.142 155.608 366.777 156.232 369.099 157.48C371.422 158.693 373.242 160.392 374.559 162.576C375.877 164.76 376.535 167.239 376.535 170.012C376.535 172.785 375.877 175.264 374.559 177.448C373.242 179.632 371.422 181.348 369.099 182.596C366.777 183.809 364.142 184.416 361.195 184.416ZM361.195 177.76C363.275 177.76 364.974 177.067 366.291 175.68C367.643 174.259 368.319 172.369 368.319 170.012C368.319 167.655 367.643 165.783 366.291 164.396C364.974 162.975 363.275 162.264 361.195 162.264C359.115 162.264 357.399 162.975 356.047 164.396C354.695 165.783 354.019 167.655 354.019 170.012C354.019 172.369 354.695 174.259 356.047 175.68C357.399 177.067 359.115 177.76 361.195 177.76ZM409.727 156.024V184H401.979V180.724C400.939 181.937 399.656 182.856 398.131 183.48C396.64 184.104 395.046 184.416 393.347 184.416C389.672 184.416 386.743 183.359 384.559 181.244C382.41 179.129 381.335 175.992 381.335 171.832V156.024H389.447V170.636C389.447 175.143 391.336 177.396 395.115 177.396C397.091 177.396 398.668 176.772 399.847 175.524C401.026 174.241 401.615 172.352 401.615 169.856V156.024H409.727ZM395.323 153.008C389.222 153.008 386.154 150.321 386.119 144.948H391.423C391.458 146.161 391.787 147.115 392.411 147.808C393.07 148.467 394.023 148.796 395.271 148.796C396.519 148.796 397.472 148.467 398.131 147.808C398.824 147.115 399.171 146.161 399.171 144.948H404.579C404.544 150.321 401.459 153.008 395.323 153.008ZM463.697 177.344V190.136H456.157V184H432.185V156.024H440.245V177.344H451.529V156.024H459.641V177.344H463.697ZM482.734 177.916C484.19 177.916 485.473 177.708 486.582 177.292C487.726 176.841 488.784 176.148 489.754 175.212L494.07 179.892C491.436 182.908 487.588 184.416 482.526 184.416C479.372 184.416 476.581 183.809 474.154 182.596C471.728 181.348 469.856 179.632 468.538 177.448C467.221 175.264 466.562 172.785 466.562 170.012C466.562 167.273 467.204 164.812 468.486 162.628C469.804 160.409 471.589 158.693 473.842 157.48C476.13 156.232 478.696 155.608 481.538 155.608C484.208 155.608 486.634 156.18 488.818 157.324C491.002 158.433 492.736 160.063 494.018 162.212C495.336 164.327 495.994 166.84 495.994 169.752L475.298 173.756C475.888 175.143 476.806 176.183 478.054 176.876C479.337 177.569 480.897 177.916 482.734 177.916ZM481.538 161.744C479.493 161.744 477.829 162.403 476.546 163.72C475.264 165.037 474.588 166.857 474.518 169.18L488.142 166.528C487.761 165.072 486.981 163.911 485.802 163.044C484.624 162.177 483.202 161.744 481.538 161.744ZM501.603 156.024H509.663V166.944H521.831V156.024H529.943V184H521.831V173.548H509.663V184H501.603V156.024ZM551.645 177.916C553.101 177.916 554.383 177.708 555.493 177.292C556.637 176.841 557.694 176.148 558.665 175.212L562.981 179.892C560.346 182.908 556.498 184.416 551.437 184.416C548.282 184.416 545.491 183.809 543.065 182.596C540.638 181.348 538.766 179.632 537.449 177.448C536.131 175.264 535.473 172.785 535.473 170.012C535.473 167.273 536.114 164.812 537.397 162.628C538.714 160.409 540.499 158.693 542.753 157.48C545.041 156.232 547.606 155.608 550.449 155.608C553.118 155.608 555.545 156.18 557.729 157.324C559.913 158.433 561.646 160.063 562.929 162.212C564.246 164.327 564.905 166.84 564.905 169.752L544.209 173.756C544.798 175.143 545.717 176.183 546.965 176.876C548.247 177.569 549.807 177.916 551.645 177.916ZM550.449 161.744C548.403 161.744 546.739 162.403 545.457 163.72C544.174 165.037 543.498 166.857 543.429 169.18L557.053 166.528C556.671 165.072 555.891 163.911 554.713 163.044C553.534 162.177 552.113 161.744 550.449 161.744Z" fill="#041A3F"/>
</svg>
